<svg width="411" height="428" viewBox="0 0 411 428" fill="none" xmlns="http://www.w3.org/2000/svg">
<path d="M378.565 393.853C374.935 393.413 363.894 391.113 360.445 379.741C359.838 377.741 360.694 375.639 362.271 374.266C392.632 347.823 410.983 313.63 410.983 276.341C410.983 229.776 389.239 188.905 370.319 162.158C367.928 158.778 370.303 154.017 374.443 154.017H376.75C386.203 154.017 393.875 146.328 393.875 136.875C393.875 127.422 386.203 119.75 376.75 119.75L34.25 119.904C24.797 119.904 17.125 127.576 17.125 137.029C17.125 146.482 24.797 154.154 34.25 154.154H36.4408C40.5802 154.154 42.9555 158.913 40.5663 162.294C21.6624 189.039 0 229.834 0 276.324C0 313.801 18.5199 348.12 49.1314 374.613C50.4507 375.755 51.1542 377.506 50.6894 379.187C47.4262 390.993 36.1854 393.373 32.4519 393.836C23.1359 394.829 16.3201 403.134 17.2106 412.502C18.0669 421.373 25.5162 428 34.25 428C34.798 428 35.346 427.983 35.894 427.932C47.5231 426.81 67.3159 419.755 78.1769 401.561C79.6769 399.048 82.8913 397.987 85.474 399.363C119.269 417.372 160.738 428 205.5 428C250.261 428 291.744 417.372 325.525 399.364C328.108 397.988 331.323 399.049 332.824 401.562C343.687 419.755 363.493 426.81 375.106 427.932C375.654 427.983 376.202 428 376.75 428C385.364 428 392.676 421.475 393.635 412.724C394.646 403.408 387.881 394.983 378.565 393.853ZM34.2329 276.324C34.2329 219.432 76.6998 170.08 88.6578 157.317C90.613 155.231 93.338 154.136 96.1976 154.135L318.986 154.034C319.064 154.034 319.138 154.065 319.193 154.12V154.12C319.775 154.668 376.733 210.444 376.733 276.341C376.733 341.091 299.91 393.767 205.483 393.767C111.056 393.767 34.2329 341.091 34.2329 276.341V276.324Z" fill="url(#paint0_linear_45_9)"/>
<circle cx="178" cy="42" r="14" fill="#FFDC95"/>
<circle cx="227.5" cy="8.5" r="8.5" fill="#FFEBC4"/>
<circle cx="240.5" cy="79.5" r="21.5" fill="#FFE2A9"/>
<defs>
<linearGradient id="paint0_linear_45_9" x1="9.49999" y1="118.5" x2="371" y2="436.5" gradientUnits="userSpaceOnUse">
<stop stop-color="#FFD175"/>
<stop offset="0.992876" stop-color="#FFBA31"/>
</linearGradient>
</defs>
</svg>
